<svg width="32" height="32" viewBox="0 0 32 32" fill="none" xmlns="http://www.w3.org/2000/svg">
<path d="M15.9996 2.02581C13.3436 2.02581 11.2805 1.05514 10.3374 0.0844727V13.6774H21.6627V0.0844727C20.7187 1.05514 18.677 2.02581 15.9996 2.02581Z" fill="#994308"/>
<path d="M25.7072 7.15825V2.90047C25.7072 1.93781 25.1081 1.09958 24.2538 0.865806L21.3925 0.0844727L15.9996 13.0525L10.6067 0.0844727L7.74539 0.865806C6.89117 1.09958 6.29206 1.93869 6.29206 2.90047V7.15736C6.29206 10.4134 3.87784 13.0525 0.89917 13.0525V29.9734C0.89917 31.0454 1.7445 31.9156 2.78628 31.9156H13.3027C14.7916 31.9156 15.9996 30.5956 15.9996 28.968C15.9996 30.5956 17.2067 31.9156 18.6965 31.9156H29.2129C30.2556 31.9156 31.1009 31.0463 31.1009 29.9734V13.0525C28.1214 13.0525 25.7072 10.4134 25.7072 7.15825Z" fill="#EB7421"/>
<path d="M0.89917 25.8624H15.9996V28.529H0.89917V25.8624ZM31.1001 28.529H15.9996V25.8624H31.1001V28.529ZM0.89917 19.6401H15.9996V22.3068H0.89917V19.6401ZM31.1001 22.3068H15.9996V19.6401H31.1001V22.3068Z" fill="#FCFB65"/>
<path d="M10.6769 20.5289V0.253362L10.6067 0.0844727L8.01025 0.793806V20.5289H10.6769ZM24.0103 20.5289V0.800028L21.3925 0.0844727L21.3436 0.202695V20.5289H24.0103Z" fill="#FCFB65"/>
<path d="M15.0557 9.8623V31.1912C15.3563 30.9046 15.5952 30.5596 15.7575 30.1773C15.9199 29.7949 16.0022 29.3834 15.9996 28.968C15.9996 29.8382 16.3508 30.6116 16.8992 31.1512V9.8623H15.0557Z" fill="#994308"/>
</svg>
