<svg width="32" height="32" viewBox="0 0 32 32" fill="none" xmlns="http://www.w3.org/2000/svg">
<path d="M32 16C32 24.8366 24.8366 32 16 32C7.16344 32 0 24.8366 0 16C0 7.16344 7.16344 0 16 0C24.8366 0 32 7.16344 32 16Z" fill="white"/>
<path fill-rule="evenodd" clip-rule="evenodd" d="M16.0007 17.9126L19.767 21.5416C20.1448 21.9085 20.3907 21.9123 20.7754 21.5416L21.5311 20.8133C21.9012 20.4567 21.9263 20.2226 21.5311 19.8417L17.5437 16.0001L21.5314 12.1586C21.9049 11.7975 21.9122 11.5538 21.5314 11.1866L20.7758 10.4587C20.3838 10.0809 20.1416 10.0983 19.7674 10.4587L16.0007 14.0877L12.2345 10.459C11.8603 10.0987 11.6181 10.0812 11.2261 10.459L10.4704 11.187C10.0893 11.5542 10.0962 11.7978 10.4704 12.1589L14.4578 16.0001L10.4704 19.8417C10.0751 20.2226 10.0962 20.4567 10.4704 20.8133L11.2257 21.5416C11.6072 21.9123 11.853 21.9085 12.2341 21.5416L16.0007 17.9126Z" fill="#B5B5B5"/>
</svg>
