<svg width="30" height="30" viewBox="0 0 30 30" fill="none" xmlns="http://www.w3.org/2000/svg">
<path d="M10.0001 29.15V22.25L4.8501 26.05C6.3001 27.4 8.0501 28.45 10.0001 29.15Z" fill="#2A5F9E"/>
<path d="M20.0001 29.15C21.9501 28.45 23.7001 27.4 25.1501 26.05L20.0001 22.2V29.15Z" fill="#2A5F9E"/>
<path d="M0.850098 20C1.0001 20.5 1.2001 20.95 1.4501 21.45L3.4001 20H0.850098Z" fill="#2A5F9E"/>
<path d="M26.6001 20L28.5501 21.45C28.7501 21 28.9501 20.5 29.1501 20H26.6001Z" fill="#2A5F9E"/>
<path d="M0.300049 18C0.450049 18.7 0.650098 19.35 0.850098 20H3.4001L1.4501 21.45C1.8501 22.3 2.30005 23.05 2.85005 23.8L8.00005 20H10V21L4.15005 25.3L4.85005 26L10.0001 22.25V29.15C10.6501 29.4 11.3 29.55 12 29.7V18H0.300049Z" fill="white"/>
<path d="M29.7001 18H18V29.7C18.7001 29.55 19.3501 29.35 20.0001 29.15L20 22.25L25.1501 26C25.8501 25.35 26.45 24.65 27.05 23.9L21.7001 20H25.1001L28.1501 22.25C28.3001 22 28.4501 21.7 28.5501 21.45L26.6001 20H29.1501C29.3501 19.35 29.5501 18.7 29.7001 18Z" fill="white"/>
<path d="M2.85005 23.8C3.25005 24.35 3.6501 24.85 4.1001 25.35L10.0001 21.05V20.05H8.0001L2.85005 23.8Z" fill="#ED4C5C"/>
<path d="M21.7501 20L27.1001 23.9C27.3001 23.65 27.4501 23.4 27.6501 23.15C27.7001 23.1 27.7001 23.05 27.7501 23.05C27.9001 22.8 28.1001 22.5 28.2501 22.25L25.1001 20H21.7501Z" fill="#ED4C5C"/>
<path d="M20.0001 0.850098V7.7501L25.1501 3.9501C23.7001 2.6001 21.9501 1.5501 20.0001 0.850098Z" fill="#2A5F9E"/>
<path d="M10.0001 0.850098C8.0501 1.5501 6.3001 2.6001 4.8501 3.9501L10.0001 7.8001V0.850098Z" fill="#2A5F9E"/>
<path d="M29.1501 10.0001C29.0001 9.5001 28.8001 9.0501 28.5501 8.5501L26.6001 10.0001H29.1501Z" fill="#2A5F9E"/>
<path d="M3.4001 10.0001L1.4501 8.5501C1.2501 9.0501 1.0501 9.5001 0.850098 10.0001H3.4001Z" fill="#2A5F9E"/>
<path d="M29.6501 12C29.5001 11.3 29.3001 10.65 29.1001 10H26.55L28.5 8.55005C28.1 7.70005 27.6501 6.95005 27.1001 6.20005L22 10H20V9.00005L25.8501 4.70005L25.1501 4.00005L20.0001 7.7501V0.850098C19.3501 0.600098 18.7001 0.450049 18 0.300049V12H29.6501Z" fill="white"/>
<path d="M0.300049 12H12V0.300049C11.3 0.450049 10.6501 0.650098 10.0001 0.850098L10 7.75005L4.85005 4.00005C4.15005 4.65005 3.55005 5.35005 2.95005 6.10005L8.30005 10H4.90005L1.85005 7.75005C1.70005 8.00005 1.5501 8.3001 1.4501 8.5501L3.4001 10.0001H0.850098C0.650098 10.6501 0.450049 11.3 0.300049 12Z" fill="white"/>
<path d="M27.15 6.2C26.75 5.65 26.35 5.15 25.9 4.65L20 8.95V9.95H22L27.15 6.2Z" fill="#ED4C5C"/>
<path d="M8.25 10L2.95005 6.10005C2.75005 6.35005 2.6 6.6 2.4 6.85C2.35 6.9 2.35 6.95 2.3 6.95C2.15 7.2 1.95 7.5 1.8 7.75L4.85 10H8.25Z" fill="#ED4C5C"/>
<path d="M29.7 12L18 12V0.300049C17.05 0.100049 16.05 0 15 0C13.95 0 12.95 0.100049 12 0.300049V12H0.300049C0.100049 12.95 0 13.95 0 15C0 16.05 0.100049 17.05 0.300049 18H12V29.7C12.95 29.9 13.95 30 15 30C16.05 30 17.05 29.9 18 29.7V18H29.7001C29.9001 17.05 30 16.05 30 15C30 13.95 29.9 12.95 29.7 12Z" fill="#ED4C5C"/>
</svg>
