<svg width="32" height="40" viewBox="0 0 32 40" fill="none" xmlns="http://www.w3.org/2000/svg">
<path d="M27.95 27.5V27.5207L27.9646 27.5354L31.95 31.5207V33.45H0.05V31.5207L4.03536 27.5354L4.05 27.5207V27.5V17.5C4.05 11.3575 7.31915 6.26209 13.0116 4.90864L13.05 4.89951V4.86V3.5C13.05 1.86761 14.3676 0.55 16 0.55C17.6324 0.55 18.95 1.86761 18.95 3.5V4.86V4.89954L18.9885 4.90865C24.7007 6.26208 27.95 11.3774 27.95 17.5V27.5ZM24 29.55H24.05V29.5V17.5C24.05 15.0102 23.292 12.7482 21.9057 11.1077C20.5187 9.46647 18.5047 8.45 16 8.45C13.4953 8.45 11.4813 9.46647 10.0943 11.1077C8.70798 12.7482 7.95 15.0102 7.95 17.5V29.5V29.55H8H24ZM19.9497 35.55C19.9227 37.6996 18.1557 39.45 16 39.45C13.8443 39.45 12.0773 37.6996 12.0503 35.55H19.9497Z" fill="#A4A4A4" stroke="white" stroke-width="0.1"/>
</svg>
